<?xml version="1.0" encoding="UTF-8" standalone="no"?><!-- Generator: Gravit.io --><svg xmlns="http://www.w3.org/2000/svg" xmlns:xlink="http://www.w3.org/1999/xlink" style="isolation:isolate" viewBox="0 0 16 16" width="16pt" height="16pt"><defs><clipPath id="_clipPath_73bl72JXYqBE3lcseGdTAXCZAWVNh2or"><rect width="16" height="16"/></clipPath></defs><g clip-path="url(#_clipPath_73bl72JXYqBE3lcseGdTAXCZAWVNh2or)"><g><path d=" M 3 3 C 1.895 3 1 3.895 1 5 L 1 11 C 1 12.105 1.895 13 3 13 L 13 13 C 14.105 13 15 12.105 15 11 L 15 5 C 15 3.895 14.105 3 13 3 L 3 3 Z  M 3 5 L 13 5 L 13 11 L 3 11 L 3 5 Z " fill="rgb(142,239,151)"/></g><path d=" M 7.294 8.7 L 6 10 L 4.706 8.7 C 4.316 8.309 4 7.547 4 7 L 4 7 L 4 7 C 4 6.448 4.448 6 5 6 L 5 6 L 5 6 C 5.552 6 6 6.448 6 7 L 6 7 L 6 7 C 6 6.448 6.448 6 7 6 L 7 6 L 7 6 C 7.552 6 8 6.448 8 7 L 8 7 L 8 7 C 8 7.547 7.684 8.309 7.294 8.7 Z " fill="rgb(142,239,151)"/><path d=" M 7.294 8.7 L 6 10 L 4.706 8.7 C 4.316 8.309 4 7.547 4 7 L 4 7 L 4 7 C 4 6.448 4.448 6 5 6 L 5 6 L 5 6 C 5.552 6 6 6.448 6 7 L 6 7 L 6 7 C 6 6.448 6.448 6 7 6 L 7 6 L 7 6 C 7.552 6 8 6.448 8 7 L 8 7 L 8 7 C 8 7.547 7.684 8.309 7.294 8.7 Z " fill="rgb(142,239,151)"/><path d=" M 11 10 L 9.706 8.7 C 9.316 8.309 9 7.547 9 7 L 9 7 L 9 7 C 9 6.448 9.448 6 10 6 L 10 6 L 10 6 C 10.552 6 11 6.448 11 7 L 11 7 L 11 10 Z " fill="rgb(142,239,151)"/></g></svg>