<?xml version="1.0" encoding="UTF-8" standalone="no"?>
<!-- Generator: Gravit.io -->
<svg xmlns="http://www.w3.org/2000/svg" xmlns:xlink="http://www.w3.org/1999/xlink" style="isolation:isolate" viewBox="0 0 16 16" width="16pt" height="16pt"><defs><clipPath id="_clipPath_Nzpy2dmTtrqCEAxpBnXRKsb38130tjd6"><rect width="16" height="16"/></clipPath></defs><g clip-path="url(#_clipPath_Nzpy2dmTtrqCEAxpBnXRKsb38130tjd6)"><path d=" M 10 9 L 10 7 L 11 7 L 11 7 L 11 9 L 10 9 Z  M 10 10 L 10 11 L 10 11 C 10 11.13 9.95 11.26 9.85 11.35 C 9.76 11.45 9.63 11.5 9.5 11.5 C 9.37 11.5 9.24 11.45 9.15 11.35 C 9.05 11.26 9 11.13 9 11 L 9 10 L 8 10 C 7.87 10 7.74 9.95 7.65 9.85 C 7.55 9.76 7.5 9.63 7.5 9.5 C 7.5 9.37 7.55 9.24 7.65 9.15 C 7.74 9.05 7.87 9 8 9 L 9 9 L 9 7 L 9 7 L 8 7 C 7.87 7 7.74 6.95 7.65 6.85 C 7.55 6.76 7.5 6.63 7.5 6.5 C 7.5 6.37 7.55 6.24 7.65 6.15 C 7.74 6.05 7.87 6 8 6 L 9 6 L 9 5 C 9 4.87 9.05 4.74 9.15 4.65 C 9.24 4.55 9.37 4.5 9.5 4.5 C 9.63 4.5 9.76 4.55 9.85 4.65 C 9.95 4.74 10 4.87 10 5 L 10 6 L 11 6 L 11 5 C 11 4.87 11.05 4.74 11.15 4.65 C 11.24 4.55 11.37 4.5 11.5 4.5 C 11.63 4.5 11.76 4.55 11.85 4.65 C 11.95 4.74 12 4.87 12 5 L 12 6 L 13 6 C 13.13 6 13.26 6.05 13.35 6.15 C 13.45 6.24 13.5 6.37 13.5 6.5 C 13.5 6.63 13.45 6.76 13.35 6.85 C 13.26 6.95 13.13 7 13 7 L 12 7 L 12 9 L 13 9 C 13.13 9 13.26 9.05 13.35 9.15 C 13.45 9.24 13.5 9.37 13.5 9.5 C 13.5 9.63 13.45 9.76 13.35 9.85 C 13.26 9.95 13.13 10 13 10 L 12 10 L 12 11 C 12 11.13 11.95 11.26 11.85 11.35 C 11.76 11.45 11.63 11.5 11.5 11.5 C 11.37 11.5 11.24 11.45 11.15 11.35 C 11.05 11.26 11 11.13 11 11 L 11 10 L 10 10 Z  M 5 7 C 5.552 7 6 7.448 6 8 C 6 8.552 5.552 9 5 9 C 4.448 9 4 8.552 4 8 C 4 7.448 4.448 7 5 7 L 5 7 L 5 7 L 5 7 L 5 7 Z  M 6 3 C 5.735 3 5.48 3.105 5.293 3.293 L 1.293 7.293 C 0.902 7.683 0.902 8.317 1.293 8.707 L 5.293 12.707 C 5.48 12.895 5.735 13 6 13 L 14 13 C 14.552 13 15 12.552 15 12 L 15 4 C 15 3.448 14.552 3 14 3 L 6 3 L 6 3 L 6 3 L 6 3 L 6 3 L 6 3 Z " fill-rule="evenodd" fill="rgb(142,239,151)"/></g></svg>