<?xml version="1.0" encoding="UTF-8" standalone="no"?><!-- Generator: Gravit.io --><svg xmlns="http://www.w3.org/2000/svg" xmlns:xlink="http://www.w3.org/1999/xlink" style="isolation:isolate" viewBox="0 0 16 16" width="16pt" height="16pt"><defs><clipPath id="_clipPath_kuDCMSgGMsphNhtnbsvykGNoPgthCvHX"><rect width="16" height="16"/></clipPath></defs><g clip-path="url(#_clipPath_kuDCMSgGMsphNhtnbsvykGNoPgthCvHX)"><path d=" M 8 9 L 9 8 L 14 13 L 15 12 L 15 15 L 12 15 L 13 14 L 8 9 L 8 9 Z  M 10 12 L 11 13 L 9 15 L 8 14 L 10 12 L 10 12 Z  M 12 9.75 L 13 10.75 Q 13.955 9.873 14 9.75 L 15 10.75 L 15 7.75 L 12 7.75 L 13 8.75 L 12 9.75 Z " fill-rule="evenodd" fill="rgb(224,224,224)"/><g><linearGradient id="_lgradient_0" x1="0.5833080319575169" y1="-0.00012594574331223352" x2="0.5833080319575167" y2="1.0370364774686578" gradientTransform="matrix(12,0,0,13.498,1,1.001)" gradientUnits="userSpaceOnUse"><stop offset="0%" stop-opacity="1" style="stop-color:rgb(255,122,122)"/><stop offset="50%" stop-opacity="1" style="stop-color:rgb(225,218,91)"/><stop offset="100%" stop-opacity="1" style="stop-color:rgb(102,255,158)"/></linearGradient><path d=" M 11.971 1.001 C 11.888 1.003 11.805 1.016 11.725 1.038 L 4.725 3.038 C 4.296 3.161 4 3.553 4 3.999 L 4 9.55 C 3.836 9.516 3.668 9.499 3.5 9.499 C 2.12 9.499 1 10.619 1 11.999 C 1 13.38 2.12 14.499 3.5 14.499 C 4.846 14.498 5.949 13.432 5.996 12.087 C 5.999 12.058 6 12.029 6 11.999 L 6 4.755 L 11 3.328 L 11 6.499 L 13 5.499 L 13 1.999 C 13 1.729 12.89 1.471 12.696 1.283 C 12.502 1.095 12.241 0.994 11.971 1.001 L 11.971 1.001 Z " fill="url(#_lgradient_0)"/></g></g></svg>